<?xml version="1.0" encoding="UTF-8"?>
<svg xmlns="http://www.w3.org/2000/svg" version="1.1" width="200" height="200" viewBox="0 0 200 200"><rect x="0" y="0" width="200" height="200" fill="#ffffff"/><g transform="scale(8)"><g transform="translate(0,0)"><path fill-rule="evenodd" d="M8 0L8 1L9 1L9 0ZM11 0L11 1L12 1L12 3L11 3L11 5L10 5L10 4L9 4L9 5L8 5L8 7L9 7L9 5L10 5L10 9L8 9L8 8L6 8L6 9L7 9L7 10L6 10L6 11L5 11L5 14L3 14L3 15L2 15L2 14L0 14L0 15L2 15L2 16L0 16L0 17L2 17L2 16L3 16L3 17L4 17L4 16L6 16L6 17L7 17L7 16L8 16L8 15L9 15L9 16L10 16L10 15L9 15L9 14L11 14L11 13L12 13L12 15L11 15L11 16L13 16L13 18L15 18L15 21L17 21L17 22L16 22L16 23L15 23L15 22L13 22L13 21L14 21L14 19L13 19L13 20L9 20L9 22L8 22L8 23L10 23L10 24L8 24L8 25L11 25L11 24L13 24L13 25L17 25L17 22L18 22L18 23L19 23L19 24L20 24L20 25L21 25L21 24L22 24L22 25L23 25L23 24L22 24L22 22L23 22L23 23L25 23L25 22L23 22L23 20L25 20L25 16L22 16L22 15L21 15L21 16L20 16L20 13L21 13L21 10L22 10L22 11L25 11L25 8L24 8L24 9L23 9L23 8L22 8L22 9L21 9L21 10L20 10L20 11L19 11L19 9L20 9L20 8L19 8L19 9L17 9L17 6L16 6L16 4L15 4L15 3L17 3L17 0L15 0L15 1L12 1L12 0ZM15 1L15 2L16 2L16 1ZM8 2L8 3L10 3L10 2ZM13 2L13 4L12 4L12 5L11 5L11 7L12 7L12 6L13 6L13 8L14 8L14 6L15 6L15 7L16 7L16 6L15 6L15 5L13 5L13 4L14 4L14 2ZM0 8L0 9L1 9L1 8ZM2 8L2 10L0 10L0 12L1 12L1 11L2 11L2 10L3 10L3 11L4 11L4 10L5 10L5 9L3 9L3 8ZM15 8L15 10L13 10L13 9L12 9L12 10L11 10L11 9L10 9L10 10L9 10L9 12L8 12L8 11L6 11L6 12L8 12L8 13L6 13L6 14L5 14L5 15L6 15L6 16L7 16L7 15L6 15L6 14L8 14L8 13L9 13L9 12L10 12L10 13L11 13L11 12L12 12L12 11L14 11L14 13L13 13L13 14L16 14L16 16L15 16L15 18L16 18L16 16L17 16L17 14L16 14L16 12L17 12L17 13L18 13L18 16L19 16L19 13L18 13L18 12L19 12L19 11L18 11L18 10L17 10L17 9L16 9L16 8ZM22 9L22 10L23 10L23 9ZM15 10L15 11L17 11L17 12L18 12L18 11L17 11L17 10ZM2 12L2 13L3 13L3 12ZM23 12L23 15L25 15L25 12ZM13 15L13 16L14 16L14 15ZM21 16L21 17L22 17L22 16ZM8 17L8 19L10 19L10 18L11 18L11 19L12 19L12 18L11 18L11 17ZM17 17L17 20L20 20L20 17ZM18 18L18 19L19 19L19 18ZM21 18L21 19L22 19L22 20L21 20L21 21L18 21L18 22L19 22L19 23L20 23L20 24L21 24L21 23L20 23L20 22L22 22L22 20L23 20L23 18ZM11 21L11 22L10 22L10 23L12 23L12 21ZM13 23L13 24L14 24L14 23ZM24 24L24 25L25 25L25 24ZM0 0L0 7L7 7L7 0ZM1 1L1 6L6 6L6 1ZM2 2L2 5L5 5L5 2ZM18 0L18 7L25 7L25 0ZM19 1L19 6L24 6L24 1ZM20 2L20 5L23 5L23 2ZM0 18L0 25L7 25L7 18ZM1 19L1 24L6 24L6 19ZM2 20L2 23L5 23L5 20Z" fill="#000000"/></g></g></svg>
