<?xml version="1.0" encoding="UTF-8"?>
<svg xmlns="http://www.w3.org/2000/svg" version="1.1" width="200" height="200" viewBox="0 0 200 200"><rect x="0" y="0" width="200" height="200" fill="#ffffff"/><g transform="scale(8)"><g transform="translate(0,0)"><path fill-rule="evenodd" d="M11 0L11 1L10 1L10 2L11 2L11 3L12 3L12 1L13 1L13 3L14 3L14 4L15 4L15 5L17 5L17 4L16 4L16 2L17 2L17 1L16 1L16 0ZM8 2L8 8L9 8L9 9L11 9L11 10L10 10L10 11L9 11L9 12L5 12L5 11L8 11L8 10L6 10L6 9L7 9L7 8L2 8L2 9L1 9L1 8L0 8L0 9L1 9L1 10L2 10L2 12L1 12L1 11L0 11L0 12L1 12L1 13L0 13L0 17L1 17L1 13L2 13L2 16L3 16L3 17L4 17L4 15L5 15L5 16L6 16L6 17L7 17L7 16L8 16L8 18L9 18L9 17L10 17L10 20L11 20L11 17L12 17L12 18L13 18L13 19L12 19L12 21L13 21L13 20L14 20L14 21L15 21L15 22L18 22L18 23L17 23L17 25L18 25L18 23L19 23L19 25L20 25L20 22L19 22L19 21L21 21L21 22L23 22L23 21L24 21L24 24L23 24L23 25L25 25L25 21L24 21L24 19L25 19L25 18L24 18L24 17L25 17L25 14L24 14L24 13L25 13L25 10L24 10L24 9L23 9L23 8L18 8L18 9L17 9L17 10L16 10L16 9L13 9L13 4L9 4L9 2ZM14 2L14 3L15 3L15 2ZM9 5L9 7L10 7L10 6L11 6L11 9L12 9L12 5ZM14 6L14 8L15 8L15 6ZM16 6L16 8L17 8L17 6ZM18 9L18 10L21 10L21 11L19 11L19 12L21 12L21 13L18 13L18 12L16 12L16 11L14 11L14 12L13 12L13 10L11 10L11 11L12 11L12 12L13 12L13 13L11 13L11 12L10 12L10 13L8 13L8 14L7 14L7 13L4 13L4 11L5 11L5 10L3 10L3 13L4 13L4 14L3 14L3 15L4 15L4 14L5 14L5 15L6 15L6 16L7 16L7 15L8 15L8 16L9 16L9 15L8 15L8 14L10 14L10 15L11 15L11 14L13 14L13 15L12 15L12 17L15 17L15 19L14 19L14 20L15 20L15 19L16 19L16 17L15 17L15 16L14 16L14 15L15 15L15 13L14 13L14 12L16 12L16 13L18 13L18 14L19 14L19 15L20 15L20 16L21 16L21 19L22 19L22 20L21 20L21 21L22 21L22 20L23 20L23 19L24 19L24 18L23 18L23 19L22 19L22 17L24 17L24 14L23 14L23 13L24 13L24 10L21 10L21 9ZM21 11L21 12L22 12L22 13L23 13L23 12L22 12L22 11ZM6 14L6 15L7 15L7 14ZM16 14L16 16L18 16L18 15L17 15L17 14ZM21 14L21 15L22 15L22 14ZM10 16L10 17L11 17L11 16ZM17 17L17 20L20 20L20 17ZM18 18L18 19L19 19L19 18ZM8 19L8 23L9 23L9 22L11 22L11 24L10 24L10 25L12 25L12 23L13 23L13 22L11 22L11 21L9 21L9 19ZM14 23L14 24L16 24L16 23ZM8 24L8 25L9 25L9 24ZM21 24L21 25L22 25L22 24ZM0 0L0 7L7 7L7 0ZM1 1L1 6L6 6L6 1ZM2 2L2 5L5 5L5 2ZM18 0L18 7L25 7L25 0ZM19 1L19 6L24 6L24 1ZM20 2L20 5L23 5L23 2ZM0 18L0 25L7 25L7 18ZM1 19L1 24L6 24L6 19ZM2 20L2 23L5 23L5 20Z" fill="#000000"/></g></g></svg>
