<?xml version="1.0" encoding="UTF-8"?>
<svg xmlns="http://www.w3.org/2000/svg" version="1.1" width="200" height="200" viewBox="0 0 200 200"><rect x="0" y="0" width="200" height="200" fill="#ffffff"/><g transform="scale(8)"><g transform="translate(0,0)"><path fill-rule="evenodd" d="M8 0L8 2L9 2L9 0ZM11 0L11 1L10 1L10 2L11 2L11 1L12 1L12 3L8 3L8 4L9 4L9 5L10 5L10 7L9 7L9 6L8 6L8 8L5 8L5 9L4 9L4 8L2 8L2 9L3 9L3 10L2 10L2 11L1 11L1 8L0 8L0 12L2 12L2 13L1 13L1 15L0 15L0 16L1 16L1 15L2 15L2 13L3 13L3 12L4 12L4 13L5 13L5 14L6 14L6 15L7 15L7 16L5 16L5 15L4 15L4 14L3 14L3 15L4 15L4 16L5 16L5 17L8 17L8 20L9 20L9 18L10 18L10 17L11 17L11 16L12 16L12 17L13 17L13 16L12 16L12 14L13 14L13 15L14 15L14 18L13 18L13 21L15 21L15 20L16 20L16 21L18 21L18 23L16 23L16 22L14 22L14 23L11 23L11 21L10 21L10 23L9 23L9 21L8 21L8 23L9 23L9 24L8 24L8 25L9 25L9 24L10 24L10 25L12 25L12 24L18 24L18 25L20 25L20 23L21 23L21 25L22 25L22 24L23 24L23 25L25 25L25 24L23 24L23 23L24 23L24 22L25 22L25 17L24 17L24 16L25 16L25 15L24 15L24 16L23 16L23 18L22 18L22 16L20 16L20 15L21 15L21 13L20 13L20 11L22 11L22 13L23 13L23 11L24 11L24 9L25 9L25 8L23 8L23 10L22 10L22 8L21 8L21 10L20 10L20 9L19 9L19 8L18 8L18 11L17 11L17 10L16 10L16 9L17 9L17 4L16 4L16 3L17 3L17 1L16 1L16 0ZM14 1L14 2L13 2L13 5L14 5L14 6L13 6L13 7L12 7L12 6L11 6L11 7L10 7L10 9L9 9L9 8L8 8L8 9L6 9L6 10L11 10L11 11L12 11L12 12L10 12L10 11L9 11L9 12L10 12L10 13L12 13L12 12L13 12L13 14L14 14L14 15L15 15L15 17L16 17L16 14L17 14L17 13L16 13L16 14L14 14L14 12L17 12L17 11L16 11L16 10L14 10L14 11L12 11L12 9L11 9L11 7L12 7L12 8L14 8L14 9L15 9L15 7L16 7L16 6L15 6L15 5L16 5L16 4L15 4L15 5L14 5L14 3L16 3L16 1ZM10 4L10 5L11 5L11 4ZM14 6L14 7L15 7L15 6ZM4 10L4 11L5 11L5 10ZM6 11L6 12L5 12L5 13L6 13L6 14L8 14L8 15L10 15L10 16L11 16L11 14L8 14L8 12L7 12L7 11ZM18 11L18 12L19 12L19 11ZM6 12L6 13L7 13L7 12ZM24 12L24 14L25 14L25 12ZM18 13L18 14L19 14L19 13ZM22 14L22 15L23 15L23 14ZM17 15L17 16L18 16L18 15ZM2 16L2 17L3 17L3 16ZM17 17L17 20L20 20L20 17ZM18 18L18 19L19 19L19 18ZM21 18L21 20L22 20L22 21L23 21L23 22L22 22L22 23L23 23L23 22L24 22L24 21L23 21L23 20L24 20L24 18L23 18L23 19L22 19L22 18ZM11 19L11 20L12 20L12 19ZM19 21L19 22L21 22L21 21ZM18 23L18 24L19 24L19 23ZM0 0L0 7L7 7L7 0ZM1 1L1 6L6 6L6 1ZM2 2L2 5L5 5L5 2ZM18 0L18 7L25 7L25 0ZM19 1L19 6L24 6L24 1ZM20 2L20 5L23 5L23 2ZM0 18L0 25L7 25L7 18ZM1 19L1 24L6 24L6 19ZM2 20L2 23L5 23L5 20Z" fill="#000000"/></g></g></svg>
