<?xml version="1.0" encoding="UTF-8"?>
<svg xmlns="http://www.w3.org/2000/svg" version="1.1" width="200" height="200" viewBox="0 0 200 200"><rect x="0" y="0" width="200" height="200" fill="#ffffff"/><g transform="scale(8)"><g transform="translate(0,0)"><path fill-rule="evenodd" d="M10 0L10 2L11 2L11 0ZM12 0L12 1L14 1L14 2L12 2L12 3L10 3L10 4L11 4L11 5L10 5L10 7L9 7L9 6L8 6L8 7L9 7L9 9L13 9L13 8L14 8L14 10L13 10L13 11L12 11L12 10L10 10L10 11L12 11L12 12L8 12L8 13L11 13L11 14L10 14L10 15L7 15L7 14L6 14L6 15L4 15L4 14L5 14L5 12L4 12L4 13L3 13L3 12L1 12L1 10L2 10L2 11L9 11L9 10L8 10L8 9L7 9L7 8L6 8L6 9L7 9L7 10L4 10L4 9L5 9L5 8L4 8L4 9L3 9L3 8L2 8L2 9L1 9L1 8L0 8L0 12L1 12L1 13L3 13L3 15L1 15L1 14L0 14L0 15L1 15L1 16L0 16L0 17L1 17L1 16L2 16L2 17L3 17L3 16L5 16L5 17L8 17L8 18L9 18L9 19L10 19L10 20L8 20L8 21L9 21L9 22L8 22L8 23L12 23L12 24L10 24L10 25L12 25L12 24L14 24L14 25L21 25L21 24L18 24L18 21L21 21L21 22L19 22L19 23L22 23L22 21L23 21L23 22L24 22L24 23L23 23L23 24L22 24L22 25L25 25L25 24L24 24L24 23L25 23L25 22L24 22L24 20L25 20L25 16L24 16L24 15L25 15L25 12L24 12L24 11L25 11L25 9L24 9L24 8L23 8L23 9L21 9L21 8L20 8L20 9L21 9L21 10L18 10L18 9L17 9L17 6L16 6L16 8L15 8L15 6L14 6L14 5L15 5L15 4L16 4L16 3L17 3L17 0L16 0L16 1L14 1L14 0ZM8 1L8 2L9 2L9 1ZM15 2L15 3L16 3L16 2ZM8 4L8 5L9 5L9 4ZM12 4L12 5L11 5L11 7L10 7L10 8L13 8L13 7L14 7L14 6L13 6L13 5L14 5L14 4ZM12 6L12 7L13 7L13 6ZM16 9L16 10L14 10L14 11L13 11L13 13L14 13L14 14L13 14L13 15L14 15L14 14L15 14L15 18L14 18L14 16L12 16L12 15L11 15L11 16L9 16L9 18L10 18L10 19L12 19L12 20L11 20L11 21L12 21L12 20L13 20L13 21L14 21L14 22L13 22L13 23L14 23L14 22L15 22L15 23L16 23L16 24L17 24L17 23L16 23L16 15L19 15L19 13L17 13L17 14L15 14L15 12L17 12L17 9ZM23 9L23 11L22 11L22 15L21 15L21 16L23 16L23 18L22 18L22 17L21 17L21 18L22 18L22 19L21 19L21 20L24 20L24 16L23 16L23 15L24 15L24 12L23 12L23 11L24 11L24 9ZM19 11L19 12L20 12L20 14L21 14L21 11ZM6 12L6 13L7 13L7 12ZM6 15L6 16L7 16L7 15ZM11 16L11 18L12 18L12 16ZM17 17L17 20L20 20L20 17ZM13 18L13 19L14 19L14 18ZM18 18L18 19L19 19L19 18ZM8 24L8 25L9 25L9 24ZM0 0L0 7L7 7L7 0ZM1 1L1 6L6 6L6 1ZM2 2L2 5L5 5L5 2ZM18 0L18 7L25 7L25 0ZM19 1L19 6L24 6L24 1ZM20 2L20 5L23 5L23 2ZM0 18L0 25L7 25L7 18ZM1 19L1 24L6 24L6 19ZM2 20L2 23L5 23L5 20Z" fill="#000000"/></g></g></svg>
