<?xml version="1.0" encoding="UTF-8"?>
<svg xmlns="http://www.w3.org/2000/svg" version="1.1" width="200" height="200" viewBox="0 0 200 200"><rect x="0" y="0" width="200" height="200" fill="#ffffff"/><g transform="scale(8)"><g transform="translate(0,0)"><path fill-rule="evenodd" d="M10 0L10 1L11 1L11 0ZM14 0L14 4L13 4L13 5L12 5L12 3L13 3L13 1L12 1L12 2L10 2L10 3L11 3L11 5L10 5L10 4L9 4L9 2L8 2L8 8L9 8L9 9L7 9L7 8L2 8L2 9L4 9L4 11L2 11L2 13L3 13L3 15L2 15L2 17L4 17L4 16L5 16L5 15L9 15L9 16L10 16L10 17L8 17L8 18L10 18L10 20L11 20L11 17L12 17L12 18L13 18L13 17L12 17L12 15L16 15L16 17L15 17L15 16L14 16L14 17L15 17L15 18L14 18L14 21L13 21L13 19L12 19L12 21L13 21L13 22L11 22L11 21L9 21L9 19L8 19L8 23L9 23L9 24L8 24L8 25L9 25L9 24L10 24L10 23L11 23L11 25L13 25L13 24L12 24L12 23L13 23L13 22L14 22L14 21L16 21L16 23L17 23L17 25L19 25L19 24L20 24L20 23L18 23L18 22L21 22L21 20L22 20L22 21L23 21L23 22L22 22L22 23L21 23L21 24L22 24L22 25L25 25L25 20L24 20L24 19L25 19L25 18L24 18L24 17L25 17L25 14L24 14L24 13L25 13L25 10L24 10L24 9L23 9L23 8L18 8L18 9L15 9L15 8L14 8L14 9L15 9L15 10L13 10L13 11L12 11L12 12L10 12L10 11L8 11L8 10L11 10L11 9L10 9L10 8L13 8L13 5L15 5L15 6L14 6L14 7L15 7L15 6L16 6L16 7L17 7L17 6L16 6L16 5L15 5L15 4L17 4L17 3L15 3L15 2L16 2L16 1L17 1L17 0ZM9 5L9 7L10 7L10 5ZM11 6L11 7L12 7L12 6ZM0 8L0 11L1 11L1 8ZM5 9L5 11L6 11L6 12L8 12L8 14L9 14L9 13L10 13L10 14L14 14L14 11L13 11L13 13L10 13L10 12L8 12L8 11L6 11L6 10L7 10L7 9ZM18 9L18 10L16 10L16 12L15 12L15 13L18 13L18 14L16 14L16 15L17 15L17 16L18 16L18 14L19 14L19 15L20 15L20 16L21 16L21 19L22 19L22 20L23 20L23 19L24 19L24 18L23 18L23 17L24 17L24 16L23 16L23 15L24 15L24 14L23 14L23 13L24 13L24 10L23 10L23 9L22 9L22 10L21 10L21 9ZM18 10L18 13L21 13L21 12L22 12L22 13L23 13L23 12L22 12L22 11L23 11L23 10L22 10L22 11L21 11L21 12L19 12L19 10ZM4 12L4 13L5 13L5 12ZM0 13L0 17L1 17L1 13ZM6 13L6 14L7 14L7 13ZM21 14L21 16L22 16L22 17L23 17L23 16L22 16L22 15L23 15L23 14ZM3 15L3 16L4 16L4 15ZM10 15L10 16L11 16L11 15ZM6 16L6 17L7 17L7 16ZM17 17L17 20L20 20L20 17ZM18 18L18 19L19 19L19 18ZM22 18L22 19L23 19L23 18ZM15 19L15 20L16 20L16 19ZM17 21L17 22L18 22L18 21ZM9 22L9 23L10 23L10 22ZM23 22L23 23L22 23L22 24L24 24L24 22ZM14 23L14 24L15 24L15 23ZM0 0L0 7L7 7L7 0ZM1 1L1 6L6 6L6 1ZM2 2L2 5L5 5L5 2ZM18 0L18 7L25 7L25 0ZM19 1L19 6L24 6L24 1ZM20 2L20 5L23 5L23 2ZM0 18L0 25L7 25L7 18ZM1 19L1 24L6 24L6 19ZM2 20L2 23L5 23L5 20Z" fill="#000000"/></g></g></svg>
