<?xml version="1.0" encoding="UTF-8"?>
<svg xmlns="http://www.w3.org/2000/svg" version="1.1" width="200" height="200" viewBox="0 0 200 200"><rect x="0" y="0" width="200" height="200" fill="#ffffff"/><g transform="scale(8)"><g transform="translate(0,0)"><path fill-rule="evenodd" d="M8 0L8 3L10 3L10 4L8 4L8 5L10 5L10 7L9 7L9 6L8 6L8 7L9 7L9 8L3 8L3 9L1 9L1 8L0 8L0 9L1 9L1 13L0 13L0 17L1 17L1 15L2 15L2 17L5 17L5 15L7 15L7 16L6 16L6 17L8 17L8 22L9 22L9 23L11 23L11 21L10 21L10 20L9 20L9 18L10 18L10 17L8 17L8 16L12 16L12 15L14 15L14 14L11 14L11 15L9 15L9 14L10 14L10 13L9 13L9 12L11 12L11 13L14 13L14 12L17 12L17 13L16 13L16 14L15 14L15 15L16 15L16 16L15 16L15 18L16 18L16 20L15 20L15 22L14 22L14 24L12 24L12 25L15 25L15 24L16 24L16 25L17 25L17 22L16 22L16 21L18 21L18 22L20 22L20 23L18 23L18 24L19 24L19 25L21 25L21 24L20 24L20 23L22 23L22 24L24 24L24 25L25 25L25 20L24 20L24 19L25 19L25 18L22 18L22 19L23 19L23 21L22 21L22 22L20 22L20 21L21 21L21 15L22 15L22 17L25 17L25 14L24 14L24 13L25 13L25 10L24 10L24 9L25 9L25 8L22 8L22 12L23 12L23 14L24 14L24 15L22 15L22 13L19 13L19 10L18 10L18 8L16 8L16 7L17 7L17 6L16 6L16 7L15 7L15 5L17 5L17 2L16 2L16 3L15 3L15 5L13 5L13 4L12 4L12 3L14 3L14 2L15 2L15 1L16 1L16 0L15 0L15 1L13 1L13 0L11 0L11 1L10 1L10 0ZM9 1L9 2L10 2L10 3L12 3L12 2L13 2L13 1L12 1L12 2L10 2L10 1ZM10 4L10 5L11 5L11 4ZM11 6L11 7L10 7L10 9L9 9L9 10L8 10L8 9L6 9L6 10L5 10L5 9L4 9L4 10L2 10L2 12L4 12L4 14L7 14L7 15L8 15L8 14L9 14L9 13L8 13L8 12L7 12L7 11L9 11L9 10L10 10L10 11L12 11L12 12L14 12L14 10L16 10L16 11L17 11L17 12L18 12L18 11L17 11L17 9L15 9L15 7L14 7L14 6L13 6L13 7L14 7L14 8L13 8L13 9L14 9L14 10L11 10L11 9L12 9L12 6ZM20 8L20 11L21 11L21 8ZM6 10L6 11L4 11L4 12L6 12L6 13L7 13L7 14L8 14L8 13L7 13L7 12L6 12L6 11L7 11L7 10ZM1 13L1 14L2 14L2 15L3 15L3 13ZM18 13L18 14L17 14L17 15L18 15L18 14L19 14L19 13ZM20 14L20 15L21 15L21 14ZM11 17L11 19L12 19L12 21L13 21L13 20L14 20L14 18L13 18L13 17ZM17 17L17 20L20 20L20 17ZM12 18L12 19L13 19L13 18ZM18 18L18 19L19 19L19 18ZM9 21L9 22L10 22L10 21ZM12 22L12 23L13 23L13 22ZM15 22L15 23L16 23L16 22ZM22 22L22 23L23 23L23 22ZM8 24L8 25L11 25L11 24ZM0 0L0 7L7 7L7 0ZM1 1L1 6L6 6L6 1ZM2 2L2 5L5 5L5 2ZM18 0L18 7L25 7L25 0ZM19 1L19 6L24 6L24 1ZM20 2L20 5L23 5L23 2ZM0 18L0 25L7 25L7 18ZM1 19L1 24L6 24L6 19ZM2 20L2 23L5 23L5 20Z" fill="#000000"/></g></g></svg>
