<?xml version="1.0" encoding="UTF-8"?>
<svg xmlns="http://www.w3.org/2000/svg" version="1.1" width="200" height="200" viewBox="0 0 200 200"><rect x="0" y="0" width="200" height="200" fill="#ffffff"/><g transform="scale(8)"><g transform="translate(0,0)"><path fill-rule="evenodd" d="M8 0L8 3L9 3L9 4L8 4L8 5L9 5L9 6L8 6L8 7L9 7L9 6L10 6L10 7L11 7L11 8L10 8L10 9L9 9L9 8L3 8L3 9L1 9L1 8L0 8L0 9L1 9L1 10L3 10L3 11L0 11L0 17L1 17L1 15L2 15L2 17L4 17L4 16L6 16L6 17L7 17L7 16L8 16L8 22L10 22L10 21L11 21L11 19L12 19L12 21L13 21L13 22L12 22L12 23L13 23L13 22L14 22L14 23L15 23L15 24L12 24L12 25L15 25L15 24L16 24L16 25L17 25L17 24L18 24L18 25L21 25L21 23L22 23L22 24L24 24L24 25L25 25L25 20L24 20L24 19L25 19L25 18L23 18L23 16L24 16L24 17L25 17L25 14L24 14L24 13L25 13L25 10L24 10L24 9L25 9L25 8L22 8L22 10L21 10L21 8L20 8L20 11L22 11L22 12L23 12L23 14L21 14L21 13L19 13L19 10L18 10L18 8L17 8L17 6L16 6L16 7L15 7L15 5L17 5L17 3L15 3L15 2L14 2L14 0L13 0L13 2L12 2L12 0L11 0L11 1L9 1L9 0ZM15 0L15 1L16 1L16 0ZM10 2L10 6L11 6L11 7L12 7L12 8L11 8L11 9L10 9L10 10L9 10L9 11L8 11L8 9L4 9L4 10L7 10L7 11L6 11L6 12L5 12L5 11L4 11L4 12L5 12L5 13L6 13L6 14L7 14L7 13L6 13L6 12L7 12L7 11L8 11L8 12L9 12L9 14L8 14L8 16L9 16L9 17L10 17L10 15L9 15L9 14L13 14L13 15L12 15L12 16L11 16L11 17L13 17L13 18L12 18L12 19L13 19L13 18L14 18L14 20L16 20L16 18L15 18L15 16L16 16L16 15L18 15L18 16L20 16L20 15L21 15L21 21L20 21L20 22L18 22L18 21L16 21L16 22L15 22L15 21L14 21L14 22L15 22L15 23L16 23L16 22L17 22L17 23L19 23L19 24L20 24L20 22L22 22L22 21L23 21L23 19L22 19L22 15L21 15L21 14L20 14L20 15L18 15L18 14L19 14L19 13L18 13L18 14L16 14L16 13L17 13L17 12L15 12L15 10L14 10L14 9L12 9L12 8L13 8L13 7L14 7L14 5L13 5L13 4L15 4L15 3L13 3L13 4L11 4L11 3L12 3L12 2ZM11 5L11 6L12 6L12 7L13 7L13 5ZM16 8L16 9L17 9L17 8ZM10 10L10 11L9 11L9 12L10 12L10 11L12 11L12 13L13 13L13 14L14 14L14 13L15 13L15 12L14 12L14 13L13 13L13 10ZM16 10L16 11L17 11L17 10ZM22 10L22 11L23 11L23 10ZM3 14L3 15L5 15L5 14ZM15 14L15 15L14 15L14 16L15 16L15 15L16 15L16 14ZM23 14L23 15L24 15L24 14ZM6 15L6 16L7 16L7 15ZM17 17L17 20L20 20L20 17ZM9 18L9 21L10 21L10 18ZM18 18L18 19L19 19L19 18ZM9 23L9 24L8 24L8 25L9 25L9 24L10 24L10 25L11 25L11 23ZM0 0L0 7L7 7L7 0ZM1 1L1 6L6 6L6 1ZM2 2L2 5L5 5L5 2ZM18 0L18 7L25 7L25 0ZM19 1L19 6L24 6L24 1ZM20 2L20 5L23 5L23 2ZM0 18L0 25L7 25L7 18ZM1 19L1 24L6 24L6 19ZM2 20L2 23L5 23L5 20Z" fill="#000000"/></g></g></svg>
